<svg xmlns="http://www.w3.org/2000/svg" xmlns:xlink="http://www.w3.org/1999/xlink" width="146" zoomAndPan="magnify" viewBox="0 0 109.5 32.999998" height="24" preserveAspectRatio="xMidYMid meet" version="1.0"><defs><g/><clipPath id="11ca7036ae"><path d="M 23 19 L 39 19 L 39 32.925781 L 23 32.925781 Z M 23 19 " clip-rule="nonzero"/></clipPath><clipPath id="fcfdf3cceb"><path d="M 38 18 L 51 18 L 51 32.925781 L 38 32.925781 Z M 38 18 " clip-rule="nonzero"/></clipPath><clipPath id="1c064c73d5"><path d="M 50 19 L 63 19 L 63 32.925781 L 50 32.925781 Z M 50 19 " clip-rule="nonzero"/></clipPath><clipPath id="9c90f16617"><path d="M 62 19 L 75 19 L 75 32.925781 L 62 32.925781 Z M 62 19 " clip-rule="nonzero"/></clipPath><clipPath id="79a9c6029b"><path d="M 75 19 L 86 19 L 86 32.925781 L 75 32.925781 Z M 75 19 " clip-rule="nonzero"/></clipPath><clipPath id="5929b31eee"><path d="M 26.375 13.191406 L 73.191406 13.191406 L 73.191406 17.972656 L 26.375 17.972656 Z M 26.375 13.191406 " clip-rule="nonzero"/></clipPath></defs><g fill="#ffffff" fill-opacity="1"><g transform="translate(12.120243, 15.604062)"><g><path d="M 5.332031 -12.765625 L 0.605469 -12.765625 L 0.605469 -12.652344 L 1.625 -11.667969 L 1.625 -1.097656 L 0.605469 -0.113281 L 0.605469 0 L 5.371094 0 C 10.78125 0 12.328125 -3.667969 12.328125 -6.695312 C 12.328125 -10.761719 9.964844 -12.765625 5.332031 -12.765625 Z M 5.3125 -0.378906 L 5.3125 -12.425781 L 5.410156 -12.425781 C 7.808594 -12.425781 8.433594 -10.628906 8.433594 -6.390625 C 8.433594 -1.929688 7.773438 -0.378906 5.671875 -0.378906 Z M 5.3125 -0.378906 "/></g></g></g><g fill="#ffffff" fill-opacity="1"><g transform="translate(24.354761, 15.604062)"><g><path d="M 6.601562 -6.128906 L 6.601562 -6.257812 C 10.609375 -6.75 11.894531 -8.339844 11.894531 -9.929688 C 11.894531 -12.160156 9.511719 -12.765625 6.636719 -12.765625 L 0.625 -12.765625 L 0.625 -12.652344 L 1.644531 -11.667969 L 1.625 -1.171875 L 0.644531 -0.113281 L 0.644531 0 L 6.296875 0 L 6.296875 -0.113281 L 5.3125 -1.171875 L 5.3125 -6.242188 L 5.75 -6.242188 L 8.207031 -1.097656 L 7.261719 -0.113281 L 7.261719 0 L 12.539062 0 L 12.539062 -0.171875 L 9.34375 -6.242188 Z M 5.3125 -12.425781 L 6.070312 -12.425781 C 7.679688 -12.425781 8.019531 -11.175781 8.019531 -9.71875 C 8.019531 -8.320312 7.808594 -6.582031 5.882812 -6.582031 L 5.3125 -6.582031 Z M 5.3125 -12.425781 "/></g></g></g><g fill="#ffffff" fill-opacity="1"><g transform="translate(36.589279, 15.604062)"><g><path d="M 11.023438 -5.371094 C 10.609375 -4.746094 10.269531 -4.199219 9.964844 -3.726562 C 8.265625 -0.984375 7.828125 -0.339844 5.617188 -0.339844 L 5.3125 -0.339844 L 5.3125 -6.277344 L 5.503906 -6.277344 C 6.523438 -6.277344 7.28125 -5.824219 8.472656 -3.667969 L 8.585938 -3.667969 L 8.585938 -9.210938 L 8.472656 -9.210938 C 7.261719 -6.902344 6.523438 -6.601562 5.503906 -6.601562 L 5.3125 -6.601562 L 5.3125 -12.425781 L 5.503906 -12.425781 C 7.714844 -12.425781 8.152344 -11.78125 9.851562 -9.039062 L 10.910156 -7.394531 L 11.023438 -7.394531 L 11.023438 -12.765625 L 0.605469 -12.765625 L 0.605469 -12.652344 L 1.625 -11.667969 L 1.625 -1.097656 L 0.605469 -0.113281 L 0.605469 0 L 11.136719 0 L 11.136719 -5.371094 Z M 11.023438 -5.371094 "/></g></g></g><g fill="#ffffff" fill-opacity="1"><g transform="translate(48.275406, 15.604062)"><g><path d="M 1.570312 -1.171875 L 0.605469 -0.113281 L 0.605469 0 L 6.242188 0 L 6.242188 -0.113281 L 5.277344 -1.171875 L 5.277344 -11.59375 L 6.242188 -12.652344 L 6.242188 -12.765625 L 0.605469 -12.765625 L 0.605469 -12.652344 L 1.570312 -11.59375 Z M 1.570312 -1.171875 "/></g></g></g><g fill="#ffffff" fill-opacity="1"><g transform="translate(54.553338, 15.604062)"><g/></g></g><g fill="#ffffff" fill-opacity="1"><g transform="translate(57.61661, 15.604062)"><g><path d="M 10.230469 -12.652344 C 12.007812 -11.496094 13.011719 -8.265625 12.40625 -5.863281 L 12.046875 -4.59375 L 11.953125 -4.59375 L 10.324219 -8.964844 L 11.121094 -9.945312 L 11.121094 -10.0625 L 6.316406 -10.0625 L 6.316406 -9.945312 C 7.015625 -9.019531 7.582031 -7.449219 6.941406 -5.445312 L 6.695312 -4.578125 L 6.601562 -4.578125 L 4.3125 -11.667969 L 5.277344 -12.652344 L 5.277344 -12.765625 L 0.132812 -12.765625 L 0.132812 -12.652344 L 4.652344 0.300781 L 4.839844 0.300781 L 7.828125 -6.296875 L 7.921875 -6.296875 L 10.570312 0.300781 L 10.761719 0.300781 L 15.222656 -12.652344 L 15.222656 -12.765625 L 10.230469 -12.765625 Z M 10.230469 -12.652344 "/></g></g></g><g fill="#ffffff" fill-opacity="1"><g transform="translate(72.460674, 15.604062)"><g><path d="M 11.023438 -5.371094 C 10.609375 -4.746094 10.269531 -4.199219 9.964844 -3.726562 C 8.265625 -0.984375 7.828125 -0.339844 5.617188 -0.339844 L 5.3125 -0.339844 L 5.3125 -6.277344 L 5.503906 -6.277344 C 6.523438 -6.277344 7.28125 -5.824219 8.472656 -3.667969 L 8.585938 -3.667969 L 8.585938 -9.210938 L 8.472656 -9.210938 C 7.261719 -6.902344 6.523438 -6.601562 5.503906 -6.601562 L 5.3125 -6.601562 L 5.3125 -12.425781 L 5.503906 -12.425781 C 7.714844 -12.425781 8.152344 -11.78125 9.851562 -9.039062 L 10.910156 -7.394531 L 11.023438 -7.394531 L 11.023438 -12.765625 L 0.605469 -12.765625 L 0.605469 -12.652344 L 1.625 -11.667969 L 1.625 -1.097656 L 0.605469 -0.113281 L 0.605469 0 L 11.136719 0 L 11.136719 -5.371094 Z M 11.023438 -5.371094 "/></g></g></g><g fill="#ffffff" fill-opacity="1"><g transform="translate(84.146799, 15.604062)"><g><path d="M 7.375 -6.636719 C 10.15625 -7.035156 11.648438 -8.246094 11.648438 -9.984375 C 11.648438 -11.648438 10.25 -12.765625 6.488281 -12.765625 L 0.605469 -12.765625 L 0.605469 -12.652344 L 1.625 -11.667969 L 1.625 -1.097656 L 0.605469 -0.113281 L 0.605469 0 L 6.128906 0 C 10.304688 0 12.3125 -1.984375 12.3125 -3.800781 C 12.3125 -5.445312 11.136719 -6.882812 7.355469 -6.503906 Z M 5.882812 -12.445312 C 7.773438 -12.445312 7.941406 -11.042969 7.941406 -9.570312 C 7.941406 -7.714844 7.546875 -6.75 5.84375 -6.730469 L 5.277344 -6.730469 L 5.277344 -12.445312 Z M 5.882812 -0.320312 C 5.464844 -0.300781 5.425781 -0.320312 5.277344 -0.339844 L 5.277344 -6.390625 L 5.898438 -6.390625 C 7.46875 -6.390625 8.359375 -5.671875 8.359375 -3.421875 C 8.359375 -1.285156 7.546875 -0.378906 5.882812 -0.320312 Z M 5.882812 -0.320312 "/></g></g></g><g clip-path="url(#11ca7036ae)"><g fill="#ffffff" fill-opacity="1"><g transform="translate(23.027469, 32.029061)"><g><path d="M 10.230469 -12.652344 C 12.007812 -11.496094 13.011719 -8.265625 12.40625 -5.863281 L 12.046875 -4.59375 L 11.953125 -4.59375 L 10.324219 -8.964844 L 11.121094 -9.945312 L 11.121094 -10.0625 L 6.316406 -10.0625 L 6.316406 -9.945312 C 7.015625 -9.019531 7.582031 -7.449219 6.941406 -5.445312 L 6.695312 -4.578125 L 6.601562 -4.578125 L 4.3125 -11.667969 L 5.277344 -12.652344 L 5.277344 -12.765625 L 0.132812 -12.765625 L 0.132812 -12.652344 L 4.652344 0.300781 L 4.839844 0.300781 L 7.828125 -6.296875 L 7.921875 -6.296875 L 10.570312 0.300781 L 10.761719 0.300781 L 15.222656 -12.652344 L 15.222656 -12.765625 L 10.230469 -12.765625 Z M 10.230469 -12.652344 "/></g></g></g></g><g clip-path="url(#fcfdf3cceb)"><g fill="#ffffff" fill-opacity="1"><g transform="translate(37.871534, 32.029061)"><g><path d="M 6.410156 0.285156 C 7.222656 0.285156 12.273438 -0.851562 12.273438 -6.390625 C 12.273438 -10.078125 9.738281 -13.03125 6.375 -13.03125 C 5.539062 -13.03125 0.492188 -11.894531 0.492188 -6.355469 C 0.492188 -2.667969 2.988281 0.285156 6.410156 0.285156 Z M 8.625 -0.832031 C 7.375 -0.453125 5.636719 -2.496094 4.292969 -6.03125 C 2.949219 -9.570312 3.140625 -11.59375 4.121094 -11.914062 C 5.296875 -12.253906 6.863281 -10.570312 8.1875 -7.261719 C 9.664062 -3.59375 9.644531 -1.171875 8.625 -0.832031 Z M 8.625 -0.832031 "/></g></g></g></g><g clip-path="url(#1c064c73d5)"><g fill="#ffffff" fill-opacity="1"><g transform="translate(50.04932, 32.029061)"><g><path d="M 6.601562 -6.128906 L 6.601562 -6.257812 C 10.609375 -6.75 11.894531 -8.339844 11.894531 -9.929688 C 11.894531 -12.160156 9.511719 -12.765625 6.636719 -12.765625 L 0.625 -12.765625 L 0.625 -12.652344 L 1.644531 -11.667969 L 1.625 -1.171875 L 0.644531 -0.113281 L 0.644531 0 L 6.296875 0 L 6.296875 -0.113281 L 5.3125 -1.171875 L 5.3125 -6.242188 L 5.75 -6.242188 L 8.207031 -1.097656 L 7.261719 -0.113281 L 7.261719 0 L 12.539062 0 L 12.539062 -0.171875 L 9.34375 -6.242188 Z M 5.3125 -12.425781 L 6.070312 -12.425781 C 7.679688 -12.425781 8.019531 -11.175781 8.019531 -9.71875 C 8.019531 -8.320312 7.808594 -6.582031 5.882812 -6.582031 L 5.3125 -6.582031 Z M 5.3125 -12.425781 "/></g></g></g></g><g clip-path="url(#9c90f16617)"><g fill="#ffffff" fill-opacity="1"><g transform="translate(62.283839, 32.029061)"><g><path d="M 7.074219 -12.765625 L 7.074219 -12.652344 C 7.773438 -11.042969 7.46875 -8.699219 5.976562 -7.109375 L 5.277344 -6.375 L 5.277344 -11.59375 L 6.242188 -12.652344 L 6.242188 -12.765625 L 0.605469 -12.765625 L 0.605469 -12.652344 L 1.570312 -11.59375 L 1.570312 -1.171875 L 0.605469 -0.113281 L 0.605469 0 L 6.242188 0 L 6.242188 -0.113281 L 5.277344 -1.171875 L 5.277344 -5.882812 L 5.351562 -5.957031 L 7.886719 -1.097656 L 6.960938 -0.113281 L 6.960938 0 L 12.253906 0 L 12.253906 -0.132812 L 8.511719 -7.792969 L 5.9375 -6.390625 L 5.882812 -6.46875 L 12.292969 -12.652344 L 12.292969 -12.765625 Z M 7.074219 -12.765625 "/></g></g></g></g><g clip-path="url(#79a9c6029b)"><g fill="#ffffff" fill-opacity="1"><g transform="translate(74.291437, 32.029061)"><g><path d="M 5.898438 -8.738281 C 3.574219 -10.117188 2.648438 -10.628906 2.648438 -11.421875 C 2.648438 -11.855469 2.96875 -12.160156 3.59375 -12.160156 C 5.484375 -12.160156 8.113281 -10.363281 10.25 -7.488281 L 10.363281 -7.488281 L 10.363281 -12.972656 L 10.269531 -12.972656 L 9.058594 -12.214844 C 8.359375 -12.652344 7.300781 -13.011719 5.976562 -13.011719 C 3.347656 -13.011719 1.210938 -12.046875 1.171875 -9.359375 C 1.132812 -7.300781 2.476562 -6.335938 4.066406 -5.390625 L 6.257812 -4.046875 C 8.054688 -2.988281 9.605469 -2.269531 9.605469 -1.417969 C 9.605469 -1.058594 9.359375 -0.679688 8.511719 -0.679688 C 7.074219 -0.679688 3.15625 -1.796875 0.871094 -6.335938 L 0.738281 -6.316406 L 1.058594 -0.492188 C 2.761719 -0.246094 4.3125 0.378906 6.144531 0.378906 C 9.417969 0.378906 11.042969 -1.625 11.042969 -3.648438 C 11.042969 -5.257812 10.003906 -6.277344 8.167969 -7.355469 Z M 5.898438 -8.738281 "/></g></g></g></g><g clip-path="url(#5929b31eee)"><path fill="#ffffff" d="M 26.375 13.191406 L 73.203125 13.191406 L 73.203125 17.972656 L 26.375 17.972656 Z M 26.375 13.191406 " fill-opacity="1" fill-rule="nonzero"/></g><g fill="#231f20" fill-opacity="1"><g transform="translate(34.257132, 16.113575)"><g><path d="M 0.078125 0 L 1.066406 0 L 1.066406 -0.230469 L 0.382812 -0.230469 L 0.382812 -1.089844 L 0.078125 -1.089844 Z M 0.078125 0 "/></g></g></g><g fill="#231f20" fill-opacity="1"><g transform="translate(36.565888, 16.113575)"><g><path d="M 0.00390625 0 L 0.324219 0 L 0.425781 -0.214844 L 1.039062 -0.214844 L 1.144531 0 L 1.460938 0 L 0.917969 -1.089844 L 0.558594 -1.089844 Z M 0.496094 -0.398438 L 0.734375 -0.890625 L 0.96875 -0.398438 Z M 0.496094 -0.398438 "/></g></g></g><g fill="#231f20" fill-opacity="1"><g transform="translate(39.257145, 16.113575)"><g><path d="M 0.46875 0 L 0.777344 0 L 0.777344 -0.867188 L 1.230469 -0.867188 L 1.230469 -1.089844 L 0.0117188 -1.089844 L 0.0117188 -0.867188 L 0.46875 -0.867188 Z M 0.46875 0 "/></g></g></g><g fill="#231f20" fill-opacity="1"><g transform="translate(41.72349, 16.113575)"><g><path d="M 1.242188 0.03125 C 1.335938 0.03125 1.433594 -0.0078125 1.488281 -0.0625 L 1.421875 -0.191406 C 1.402344 -0.164062 1.367188 -0.144531 1.335938 -0.144531 C 1.292969 -0.144531 1.269531 -0.167969 1.25 -0.203125 L 1.171875 -0.335938 C 1.148438 -0.386719 1.113281 -0.421875 1.070312 -0.445312 C 1.269531 -0.476562 1.390625 -0.589844 1.390625 -0.753906 C 1.390625 -0.964844 1.226562 -1.089844 0.953125 -1.089844 L 0.078125 -1.089844 L 0.078125 0 L 0.382812 0 L 0.382812 -0.390625 L 0.71875 -0.390625 C 0.796875 -0.390625 0.863281 -0.351562 0.902344 -0.28125 L 0.976562 -0.140625 C 1.027344 -0.0546875 1.101562 0.03125 1.242188 0.03125 Z M 0.382812 -0.578125 L 0.382812 -0.898438 L 0.867188 -0.898438 C 1 -0.898438 1.082031 -0.835938 1.082031 -0.734375 C 1.082031 -0.640625 1 -0.578125 0.867188 -0.578125 Z M 0.382812 -0.578125 "/></g></g></g><g fill="#231f20" fill-opacity="1"><g transform="translate(44.434635, 16.113575)"><g><path d="M 0.078125 0 L 1.210938 0 L 1.210938 -0.199219 L 0.375 -0.199219 L 0.375 -0.46875 L 1.132812 -0.46875 L 1.132812 -0.644531 L 0.375 -0.644531 L 0.375 -0.890625 L 1.195312 -0.890625 L 1.195312 -1.089844 L 0.078125 -1.089844 Z M 0.078125 0 "/></g></g></g><g fill="#231f20" fill-opacity="1"><g transform="translate(46.899451, 16.113575)"><g><path d="M 0.078125 0 L 1.066406 0 L 1.066406 -0.230469 L 0.382812 -0.230469 L 0.382812 -1.089844 L 0.078125 -1.089844 Z M 0.078125 0 "/></g></g></g><g fill="#231f20" fill-opacity="1"><g transform="translate(49.208207, 16.113575)"><g><path d="M 0.078125 0 L 1.066406 0 L 1.066406 -0.230469 L 0.382812 -0.230469 L 0.382812 -1.089844 L 0.078125 -1.089844 Z M 0.078125 0 "/></g></g></g><g fill="#231f20" fill-opacity="1"><g transform="translate(51.516963, 16.113575)"><g><path d="M 0.00390625 0 L 0.324219 0 L 0.425781 -0.214844 L 1.039062 -0.214844 L 1.144531 0 L 1.460938 0 L 0.917969 -1.089844 L 0.558594 -1.089844 Z M 0.496094 -0.398438 L 0.734375 -0.890625 L 0.96875 -0.398438 Z M 0.496094 -0.398438 "/></g></g></g><g fill="#231f20" fill-opacity="1"><g transform="translate(54.20822, 16.113575)"><g><path d="M 0.078125 0 L 0.367188 0 L 0.367188 -0.800781 L 0.371094 -0.800781 L 1.054688 0 L 1.429688 0 L 1.429688 -1.089844 L 1.136719 -1.089844 L 1.136719 -0.296875 L 1.132812 -0.296875 L 0.453125 -1.089844 L 0.078125 -1.089844 Z M 0.078125 0 "/></g></g></g><g fill="#231f20" fill-opacity="1"><g transform="translate(56.937727, 16.113575)"><g><path d="M 0.078125 0 L 0.804688 0 C 1.226562 0 1.457031 -0.195312 1.457031 -0.542969 C 1.457031 -0.894531 1.226562 -1.089844 0.804688 -1.089844 L 0.078125 -1.089844 Z M 0.375 -0.214844 L 0.375 -0.875 L 0.769531 -0.875 C 1.019531 -0.875 1.15625 -0.753906 1.15625 -0.542969 C 1.15625 -0.332031 1.019531 -0.214844 0.769531 -0.214844 Z M 0.375 -0.214844 "/></g></g></g><g fill="#231f20" fill-opacity="1"><g transform="translate(59.673352, 16.113575)"><g><path d="M 1.242188 0.03125 C 1.335938 0.03125 1.433594 -0.0078125 1.488281 -0.0625 L 1.421875 -0.191406 C 1.402344 -0.164062 1.367188 -0.144531 1.335938 -0.144531 C 1.292969 -0.144531 1.269531 -0.167969 1.25 -0.203125 L 1.171875 -0.335938 C 1.148438 -0.386719 1.113281 -0.421875 1.070312 -0.445312 C 1.269531 -0.476562 1.390625 -0.589844 1.390625 -0.753906 C 1.390625 -0.964844 1.226562 -1.089844 0.953125 -1.089844 L 0.078125 -1.089844 L 0.078125 0 L 0.382812 0 L 0.382812 -0.390625 L 0.71875 -0.390625 C 0.796875 -0.390625 0.863281 -0.351562 0.902344 -0.28125 L 0.976562 -0.140625 C 1.027344 -0.0546875 1.101562 0.03125 1.242188 0.03125 Z M 0.382812 -0.578125 L 0.382812 -0.898438 L 0.867188 -0.898438 C 1 -0.898438 1.082031 -0.835938 1.082031 -0.734375 C 1.082031 -0.640625 1 -0.578125 0.867188 -0.578125 Z M 0.382812 -0.578125 "/></g></g></g><g fill="#231f20" fill-opacity="1"><g transform="translate(62.384498, 16.113575)"><g><path d="M 0.078125 0 L 1.210938 0 L 1.210938 -0.199219 L 0.375 -0.199219 L 0.375 -0.46875 L 1.132812 -0.46875 L 1.132812 -0.644531 L 0.375 -0.644531 L 0.375 -0.890625 L 1.195312 -0.890625 L 1.195312 -1.089844 L 0.078125 -1.089844 Z M 0.078125 0 "/></g></g></g><g fill="#231f20" fill-opacity="1"><g transform="translate(64.849315, 16.113575)"><g><path d="M 0.078125 0 L 0.382812 0 L 0.382812 -1.089844 L 0.078125 -1.089844 Z M 0.078125 0 "/></g></g></g></svg>