<svg xmlns="http://www.w3.org/2000/svg" xmlns:xlink="http://www.w3.org/1999/xlink" width="146" zoomAndPan="magnify" viewBox="0 0 109.5 32.999998" height="44" preserveAspectRatio="xMidYMid meet" version="1.0"><defs><g/><clipPath id="3cf958fd38"><path d="M 26.375 13.191406 L 73.191406 13.191406 L 73.191406 17.972656 L 26.375 17.972656 Z M 26.375 13.191406 " clip-rule="nonzero"/></clipPath></defs><g fill="#231f20" fill-opacity="1"><g transform="translate(23.00942, 15.156134)"><g><path d="M 3.367188 -8.0625 L 0.382812 -8.0625 L 0.382812 -7.992188 L 1.027344 -7.371094 L 1.027344 -0.691406 L 0.382812 -0.0703125 L 0.382812 0 L 3.390625 0 C 6.808594 0 7.789062 -2.316406 7.789062 -4.230469 C 7.789062 -6.796875 6.296875 -8.0625 3.367188 -8.0625 Z M 3.355469 -0.238281 L 3.355469 -7.847656 L 3.417969 -7.847656 C 4.933594 -7.847656 5.328125 -6.714844 5.328125 -4.039062 C 5.328125 -1.21875 4.910156 -0.238281 3.582031 -0.238281 Z M 3.355469 -0.238281 "/></g></g></g><g fill="#231f20" fill-opacity="1"><g transform="translate(30.738141, 15.156134)"><g><path d="M 4.167969 -3.871094 L 4.167969 -3.953125 C 6.703125 -4.265625 7.515625 -5.269531 7.515625 -6.269531 C 7.515625 -7.679688 6.007812 -8.0625 4.191406 -8.0625 L 0.394531 -8.0625 L 0.394531 -7.992188 L 1.039062 -7.371094 L 1.027344 -0.742188 L 0.40625 -0.0703125 L 0.40625 0 L 3.976562 0 L 3.976562 -0.0703125 L 3.355469 -0.742188 L 3.355469 -3.941406 L 3.632812 -3.941406 L 5.183594 -0.691406 L 4.585938 -0.0703125 L 4.585938 0 L 7.917969 0 L 7.917969 -0.109375 L 5.902344 -3.941406 Z M 3.355469 -7.847656 L 3.835938 -7.847656 C 4.851562 -7.847656 5.066406 -7.058594 5.066406 -6.140625 C 5.066406 -5.257812 4.933594 -4.15625 3.714844 -4.15625 L 3.355469 -4.15625 Z M 3.355469 -7.847656 "/></g></g></g><g fill="#231f20" fill-opacity="1"><g transform="translate(38.466862, 15.156134)"><g><path d="M 6.964844 -3.390625 C 6.703125 -3 6.488281 -2.652344 6.296875 -2.351562 C 5.21875 -0.621094 4.945312 -0.214844 3.546875 -0.214844 L 3.355469 -0.214844 L 3.355469 -3.964844 L 3.476562 -3.964844 C 4.121094 -3.964844 4.597656 -3.679688 5.351562 -2.316406 L 5.421875 -2.316406 L 5.421875 -5.816406 L 5.351562 -5.816406 C 4.585938 -4.359375 4.121094 -4.167969 3.476562 -4.167969 L 3.355469 -4.167969 L 3.355469 -7.847656 L 3.476562 -7.847656 C 4.875 -7.847656 5.148438 -7.441406 6.222656 -5.710938 L 6.890625 -4.671875 L 6.964844 -4.671875 L 6.964844 -8.0625 L 0.382812 -8.0625 L 0.382812 -7.992188 L 1.027344 -7.371094 L 1.027344 -0.691406 L 0.382812 -0.0703125 L 0.382812 0 L 7.035156 0 L 7.035156 -3.390625 Z M 6.964844 -3.390625 "/></g></g></g><g fill="#231f20" fill-opacity="1"><g transform="translate(45.849173, 15.156134)"><g><path d="M 0.992188 -0.742188 L 0.382812 -0.0703125 L 0.382812 0 L 3.941406 0 L 3.941406 -0.0703125 L 3.332031 -0.742188 L 3.332031 -7.324219 L 3.941406 -7.992188 L 3.941406 -8.0625 L 0.382812 -8.0625 L 0.382812 -7.992188 L 0.992188 -7.324219 Z M 0.992188 -0.742188 "/></g></g></g><g fill="#231f20" fill-opacity="1"><g transform="translate(49.81507, 15.156134)"><g/></g></g><g fill="#231f20" fill-opacity="1"><g transform="translate(51.750238, 15.156134)"><g><path d="M 6.460938 -7.992188 C 7.585938 -7.261719 8.21875 -5.21875 7.835938 -3.703125 L 7.609375 -2.902344 L 7.550781 -2.902344 L 6.523438 -5.664062 L 7.023438 -6.285156 L 7.023438 -6.355469 L 3.988281 -6.355469 L 3.988281 -6.285156 C 4.433594 -5.699219 4.789062 -4.707031 4.382812 -3.441406 L 4.230469 -2.890625 L 4.167969 -2.890625 L 2.722656 -7.371094 L 3.332031 -7.992188 L 3.332031 -8.0625 L 0.0820312 -8.0625 L 0.0820312 -7.992188 L 2.9375 0.191406 L 3.058594 0.191406 L 4.945312 -3.976562 L 5.003906 -3.976562 L 6.675781 0.191406 L 6.796875 0.191406 L 9.617188 -7.992188 L 9.617188 -8.0625 L 6.460938 -8.0625 Z M 6.460938 -7.992188 "/></g></g></g><g fill="#231f20" fill-opacity="1"><g transform="translate(61.127438, 15.156134)"><g><path d="M 6.964844 -3.390625 C 6.703125 -3 6.488281 -2.652344 6.296875 -2.351562 C 5.21875 -0.621094 4.945312 -0.214844 3.546875 -0.214844 L 3.355469 -0.214844 L 3.355469 -3.964844 L 3.476562 -3.964844 C 4.121094 -3.964844 4.597656 -3.679688 5.351562 -2.316406 L 5.421875 -2.316406 L 5.421875 -5.816406 L 5.351562 -5.816406 C 4.585938 -4.359375 4.121094 -4.167969 3.476562 -4.167969 L 3.355469 -4.167969 L 3.355469 -7.847656 L 3.476562 -7.847656 C 4.875 -7.847656 5.148438 -7.441406 6.222656 -5.710938 L 6.890625 -4.671875 L 6.964844 -4.671875 L 6.964844 -8.0625 L 0.382812 -8.0625 L 0.382812 -7.992188 L 1.027344 -7.371094 L 1.027344 -0.691406 L 0.382812 -0.0703125 L 0.382812 0 L 7.035156 0 L 7.035156 -3.390625 Z M 6.964844 -3.390625 "/></g></g></g><g fill="#231f20" fill-opacity="1"><g transform="translate(68.509749, 15.156134)"><g><path d="M 4.660156 -4.191406 C 6.414062 -4.445312 7.359375 -5.207031 7.359375 -6.308594 C 7.359375 -7.359375 6.472656 -8.0625 4.097656 -8.0625 L 0.382812 -8.0625 L 0.382812 -7.992188 L 1.027344 -7.371094 L 1.027344 -0.691406 L 0.382812 -0.0703125 L 0.382812 0 L 3.871094 0 C 6.511719 0 7.777344 -1.253906 7.777344 -2.402344 C 7.777344 -3.441406 7.035156 -4.347656 4.648438 -4.109375 Z M 3.714844 -7.859375 C 4.910156 -7.859375 5.015625 -6.976562 5.015625 -6.042969 C 5.015625 -4.875 4.765625 -4.265625 3.691406 -4.253906 L 3.332031 -4.253906 L 3.332031 -7.859375 Z M 3.714844 -0.203125 C 3.453125 -0.191406 3.429688 -0.203125 3.332031 -0.214844 L 3.332031 -4.039062 L 3.726562 -4.039062 C 4.71875 -4.039062 5.28125 -3.582031 5.28125 -2.164062 C 5.28125 -0.8125 4.765625 -0.238281 3.714844 -0.203125 Z M 3.714844 -0.203125 "/></g></g></g><g fill="#231f20" fill-opacity="1"><g transform="translate(29.892055, 25.608407)"><g><path d="M 6.460938 -7.992188 C 7.585938 -7.261719 8.21875 -5.21875 7.835938 -3.703125 L 7.609375 -2.902344 L 7.550781 -2.902344 L 6.523438 -5.664062 L 7.023438 -6.285156 L 7.023438 -6.355469 L 3.988281 -6.355469 L 3.988281 -6.285156 C 4.433594 -5.699219 4.789062 -4.707031 4.382812 -3.441406 L 4.230469 -2.890625 L 4.167969 -2.890625 L 2.722656 -7.371094 L 3.332031 -7.992188 L 3.332031 -8.0625 L 0.0820312 -8.0625 L 0.0820312 -7.992188 L 2.9375 0.191406 L 3.058594 0.191406 L 4.945312 -3.976562 L 5.003906 -3.976562 L 6.675781 0.191406 L 6.796875 0.191406 L 9.617188 -7.992188 L 9.617188 -8.0625 L 6.460938 -8.0625 Z M 6.460938 -7.992188 "/></g></g></g><g fill="#231f20" fill-opacity="1"><g transform="translate(39.269254, 25.608407)"><g><path d="M 4.050781 0.179688 C 4.5625 0.179688 7.753906 -0.539062 7.753906 -4.039062 C 7.753906 -6.367188 6.152344 -8.230469 4.027344 -8.230469 C 3.5 -8.230469 0.3125 -7.515625 0.3125 -4.015625 C 0.3125 -1.683594 1.886719 0.179688 4.050781 0.179688 Z M 5.445312 -0.527344 C 4.660156 -0.285156 3.558594 -1.578125 2.710938 -3.8125 C 1.863281 -6.042969 1.984375 -7.324219 2.605469 -7.527344 C 3.34375 -7.742188 4.335938 -6.675781 5.171875 -4.585938 C 6.105469 -2.269531 6.09375 -0.742188 5.445312 -0.527344 Z M 5.445312 -0.527344 "/></g></g></g><g fill="#231f20" fill-opacity="1"><g transform="translate(46.962147, 25.608407)"><g><path d="M 4.167969 -3.871094 L 4.167969 -3.953125 C 6.703125 -4.265625 7.515625 -5.269531 7.515625 -6.269531 C 7.515625 -7.679688 6.007812 -8.0625 4.191406 -8.0625 L 0.394531 -8.0625 L 0.394531 -7.992188 L 1.039062 -7.371094 L 1.027344 -0.742188 L 0.40625 -0.0703125 L 0.40625 0 L 3.976562 0 L 3.976562 -0.0703125 L 3.355469 -0.742188 L 3.355469 -3.941406 L 3.632812 -3.941406 L 5.183594 -0.691406 L 4.585938 -0.0703125 L 4.585938 0 L 7.917969 0 L 7.917969 -0.109375 L 5.902344 -3.941406 Z M 3.355469 -7.847656 L 3.835938 -7.847656 C 4.851562 -7.847656 5.066406 -7.058594 5.066406 -6.140625 C 5.066406 -5.257812 4.933594 -4.15625 3.714844 -4.15625 L 3.355469 -4.15625 Z M 3.355469 -7.847656 "/></g></g></g><g fill="#231f20" fill-opacity="1"><g transform="translate(54.690868, 25.608407)"><g><path d="M 4.46875 -8.0625 L 4.46875 -7.992188 C 4.910156 -6.976562 4.71875 -5.496094 3.773438 -4.492188 L 3.332031 -4.027344 L 3.332031 -7.324219 L 3.941406 -7.992188 L 3.941406 -8.0625 L 0.382812 -8.0625 L 0.382812 -7.992188 L 0.992188 -7.324219 L 0.992188 -0.742188 L 0.382812 -0.0703125 L 0.382812 0 L 3.941406 0 L 3.941406 -0.0703125 L 3.332031 -0.742188 L 3.332031 -3.714844 L 3.378906 -3.761719 L 4.980469 -0.691406 L 4.394531 -0.0703125 L 4.394531 0 L 7.742188 0 L 7.742188 -0.0820312 L 5.375 -4.921875 L 3.75 -4.039062 L 3.714844 -4.085938 L 7.765625 -7.992188 L 7.765625 -8.0625 Z M 4.46875 -8.0625 "/></g></g></g><g fill="#231f20" fill-opacity="1"><g transform="translate(62.276243, 25.608407)"><g><path d="M 3.726562 -5.519531 C 2.257812 -6.390625 1.671875 -6.714844 1.671875 -7.214844 C 1.671875 -7.488281 1.875 -7.679688 2.269531 -7.679688 C 3.464844 -7.679688 5.125 -6.546875 6.472656 -4.730469 L 6.546875 -4.730469 L 6.546875 -8.195312 L 6.488281 -8.195312 L 5.722656 -7.714844 C 5.28125 -7.992188 4.609375 -8.21875 3.773438 -8.21875 C 2.113281 -8.21875 0.765625 -7.609375 0.742188 -5.914062 C 0.714844 -4.609375 1.566406 -4 2.566406 -3.40625 L 3.953125 -2.554688 C 5.089844 -1.886719 6.066406 -1.433594 6.066406 -0.894531 C 6.066406 -0.667969 5.914062 -0.429688 5.375 -0.429688 C 4.46875 -0.429688 1.996094 -1.136719 0.550781 -4 L 0.464844 -3.988281 L 0.667969 -0.3125 C 1.742188 -0.15625 2.722656 0.238281 3.882812 0.238281 C 5.949219 0.238281 6.976562 -1.027344 6.976562 -2.304688 C 6.976562 -3.320312 6.320312 -3.964844 5.160156 -4.648438 Z M 3.726562 -5.519531 "/></g></g></g><g clip-path="url(#3cf958fd38)"><path fill="#fbfaf9" d="M 26.375 13.191406 L 73.203125 13.191406 L 73.203125 17.972656 L 26.375 17.972656 Z M 26.375 13.191406 " fill-opacity="1" fill-rule="nonzero"/></g><g fill="#231f20" fill-opacity="1"><g transform="translate(34.257152, 16.113575)"><g><path d="M 0.078125 0 L 1.066406 0 L 1.066406 -0.230469 L 0.382812 -0.230469 L 0.382812 -1.089844 L 0.078125 -1.089844 Z M 0.078125 0 "/></g></g></g><g fill="#231f20" fill-opacity="1"><g transform="translate(36.565916, 16.113575)"><g><path d="M 0.00390625 0 L 0.324219 0 L 0.425781 -0.214844 L 1.039062 -0.214844 L 1.144531 0 L 1.460938 0 L 0.917969 -1.089844 L 0.558594 -1.089844 Z M 0.496094 -0.398438 L 0.734375 -0.890625 L 0.96875 -0.398438 Z M 0.496094 -0.398438 "/></g></g></g><g fill="#231f20" fill-opacity="1"><g transform="translate(39.257181, 16.113575)"><g><path d="M 0.46875 0 L 0.777344 0 L 0.777344 -0.867188 L 1.230469 -0.867188 L 1.230469 -1.089844 L 0.0117188 -1.089844 L 0.0117188 -0.867188 L 0.46875 -0.867188 Z M 0.46875 0 "/></g></g></g><g fill="#231f20" fill-opacity="1"><g transform="translate(41.723534, 16.113575)"><g><path d="M 1.242188 0.03125 C 1.335938 0.03125 1.433594 -0.0078125 1.488281 -0.0625 L 1.421875 -0.191406 C 1.402344 -0.164062 1.367188 -0.144531 1.335938 -0.144531 C 1.292969 -0.144531 1.269531 -0.167969 1.25 -0.203125 L 1.171875 -0.335938 C 1.148438 -0.386719 1.113281 -0.421875 1.070312 -0.445312 C 1.269531 -0.476562 1.390625 -0.589844 1.390625 -0.753906 C 1.390625 -0.964844 1.226562 -1.089844 0.953125 -1.089844 L 0.078125 -1.089844 L 0.078125 0 L 0.382812 0 L 0.382812 -0.390625 L 0.71875 -0.390625 C 0.796875 -0.390625 0.863281 -0.351562 0.902344 -0.28125 L 0.976562 -0.140625 C 1.027344 -0.0546875 1.101562 0.03125 1.242188 0.03125 Z M 0.382812 -0.578125 L 0.382812 -0.898438 L 0.867188 -0.898438 C 1 -0.898438 1.082031 -0.835938 1.082031 -0.734375 C 1.082031 -0.640625 1 -0.578125 0.867188 -0.578125 Z M 0.382812 -0.578125 "/></g></g></g><g fill="#231f20" fill-opacity="1"><g transform="translate(44.434688, 16.113575)"><g><path d="M 0.078125 0 L 1.210938 0 L 1.210938 -0.199219 L 0.375 -0.199219 L 0.375 -0.46875 L 1.132812 -0.46875 L 1.132812 -0.644531 L 0.375 -0.644531 L 0.375 -0.890625 L 1.195312 -0.890625 L 1.195312 -1.089844 L 0.078125 -1.089844 Z M 0.078125 0 "/></g></g></g><g fill="#231f20" fill-opacity="1"><g transform="translate(46.899512, 16.113575)"><g><path d="M 0.078125 0 L 1.066406 0 L 1.066406 -0.230469 L 0.382812 -0.230469 L 0.382812 -1.089844 L 0.078125 -1.089844 Z M 0.078125 0 "/></g></g></g><g fill="#231f20" fill-opacity="1"><g transform="translate(49.208275, 16.113575)"><g><path d="M 0.078125 0 L 1.066406 0 L 1.066406 -0.230469 L 0.382812 -0.230469 L 0.382812 -1.089844 L 0.078125 -1.089844 Z M 0.078125 0 "/></g></g></g><g fill="#231f20" fill-opacity="1"><g transform="translate(51.517038, 16.113575)"><g><path d="M 0.00390625 0 L 0.324219 0 L 0.425781 -0.214844 L 1.039062 -0.214844 L 1.144531 0 L 1.460938 0 L 0.917969 -1.089844 L 0.558594 -1.089844 Z M 0.496094 -0.398438 L 0.734375 -0.890625 L 0.96875 -0.398438 Z M 0.496094 -0.398438 "/></g></g></g><g fill="#231f20" fill-opacity="1"><g transform="translate(54.208304, 16.113575)"><g><path d="M 0.078125 0 L 0.367188 0 L 0.367188 -0.800781 L 0.371094 -0.800781 L 1.054688 0 L 1.429688 0 L 1.429688 -1.089844 L 1.136719 -1.089844 L 1.136719 -0.296875 L 1.132812 -0.296875 L 0.453125 -1.089844 L 0.078125 -1.089844 Z M 0.078125 0 "/></g></g></g><g fill="#231f20" fill-opacity="1"><g transform="translate(56.93782, 16.113575)"><g><path d="M 0.078125 0 L 0.804688 0 C 1.226562 0 1.457031 -0.195312 1.457031 -0.542969 C 1.457031 -0.894531 1.226562 -1.089844 0.804688 -1.089844 L 0.078125 -1.089844 Z M 0.375 -0.214844 L 0.375 -0.875 L 0.769531 -0.875 C 1.019531 -0.875 1.160156 -0.753906 1.160156 -0.542969 C 1.160156 -0.332031 1.019531 -0.214844 0.769531 -0.214844 Z M 0.375 -0.214844 "/></g></g></g><g fill="#231f20" fill-opacity="1"><g transform="translate(59.673455, 16.113575)"><g><path d="M 1.242188 0.03125 C 1.335938 0.03125 1.433594 -0.0078125 1.488281 -0.0625 L 1.421875 -0.191406 C 1.402344 -0.164062 1.367188 -0.144531 1.335938 -0.144531 C 1.292969 -0.144531 1.269531 -0.167969 1.25 -0.203125 L 1.171875 -0.335938 C 1.148438 -0.386719 1.113281 -0.421875 1.070312 -0.445312 C 1.269531 -0.476562 1.390625 -0.589844 1.390625 -0.753906 C 1.390625 -0.964844 1.226562 -1.089844 0.953125 -1.089844 L 0.078125 -1.089844 L 0.078125 0 L 0.382812 0 L 0.382812 -0.390625 L 0.71875 -0.390625 C 0.796875 -0.390625 0.863281 -0.351562 0.902344 -0.28125 L 0.976562 -0.140625 C 1.027344 -0.0546875 1.101562 0.03125 1.242188 0.03125 Z M 0.382812 -0.578125 L 0.382812 -0.898438 L 0.867188 -0.898438 C 1 -0.898438 1.082031 -0.835938 1.082031 -0.734375 C 1.082031 -0.640625 1 -0.578125 0.867188 -0.578125 Z M 0.382812 -0.578125 "/></g></g></g><g fill="#231f20" fill-opacity="1"><g transform="translate(62.384609, 16.113575)"><g><path d="M 0.078125 0 L 1.210938 0 L 1.210938 -0.199219 L 0.375 -0.199219 L 0.375 -0.46875 L 1.132812 -0.46875 L 1.132812 -0.644531 L 0.375 -0.644531 L 0.375 -0.890625 L 1.195312 -0.890625 L 1.195312 -1.089844 L 0.078125 -1.089844 Z M 0.078125 0 "/></g></g></g><g fill="#231f20" fill-opacity="1"><g transform="translate(64.849434, 16.113575)"><g><path d="M 0.078125 0 L 0.382812 0 L 0.382812 -1.089844 L 0.078125 -1.089844 Z M 0.078125 0 "/></g></g></g></svg>